<?xml version="1.0" standalone="no"?>
<!DOCTYPE svg PUBLIC "-//W3C//DTD SVG 20010904//EN"
 "http://www.w3.org/TR/2001/REC-SVG-20010904/DTD/svg10.dtd">
<svg version="1.0" xmlns="http://www.w3.org/2000/svg"
 width="1060.000000pt" height="1280.000000pt" viewBox="0 0 1060.000000 1280.000000"
 preserveAspectRatio="xMidYMid meet">
<metadata>
Created by potrace 1.15, written by Peter Selinger 2001-2017
</metadata>
<g transform="translate(0.000000,1280.000000) scale(0.100000,-0.100000)"
fill="#333333" stroke="none">
<path d="M4565 12791 c-322 -52 -570 -288 -689 -655 -31 -95 -32 -99 -5 -61
24 35 23 31 -13 -56 -105 -249 -126 -337 -163 -700 -32 -319 -66 -533 -99
-631 -37 -109 -39 -117 -16 -68 51 108 79 259 115 607 28 277 49 433 68 508
13 48 13 47 13 -65 -1 -63 5 -176 13 -250 23 -235 1 -573 -54 -797 -36 -148
-79 -258 -148 -373 -14 -24 2 -11 48 38 126 135 172 209 210 340 l22 74 12
-94 c28 -204 88 -460 137 -576 19 -47 18 -52 -13 -52 -105 0 -306 -42 -425
-89 l-98 -39 -37 52 c-20 28 -37 52 -38 53 0 1 -31 5 -68 9 -66 7 -67 6 -97
-26 l-30 -32 -51 33 c-49 31 -58 33 -208 45 -86 7 -171 13 -188 14 l-33 0 0
-79 0 -79 -37 10 c-21 5 -80 28 -131 50 -112 47 -193 73 -293 93 -163 32 -267
36 -825 29 l-551 -7 -47 32 c-83 58 -151 136 -199 229 -43 84 -45 93 -72 287
-33 242 -39 270 -68 290 -32 22 -73 19 -91 -7 -15 -21 -16 -21 -29 -4 -16 22
-55 17 -81 -10 -21 -20 -20 -57 5 -292 11 -107 18 -196 16 -199 -3 -2 -19 25
-36 61 -17 36 -35 66 -41 66 -5 0 -26 26 -46 58 -48 76 -73 102 -99 102 -29 0
-61 -25 -73 -57 -8 -25 -1 -42 59 -147 38 -66 69 -126 69 -133 0 -7 11 -41 25
-75 14 -34 23 -63 20 -66 -2 -2 -33 21 -68 52 -71 62 -98 69 -123 31 -32 -49
-15 -80 121 -215 105 -105 125 -130 125 -155 0 -37 50 -144 90 -196 47 -58 97
-77 240 -90 69 -6 219 -29 335 -50 672 -123 836 -152 980 -170 88 -11 228 -31
310 -44 83 -13 182 -27 220 -31 39 -3 95 -12 125 -19 30 -7 94 -19 142 -25
l88 -12 10 -39 c5 -21 15 -58 21 -81 5 -24 24 -89 41 -146 l31 -102 55 -16
c95 -28 213 -21 414 25 245 56 338 67 443 52 45 -6 103 -18 128 -27 43 -14 46
-19 90 -113 88 -186 146 -396 184 -662 25 -176 25 -682 -1 -891 -13 -110 -15
-152 -6 -167 11 -22 59 -51 85 -51 8 0 15 -2 15 -5 0 -11 -83 -170 -103 -197
-11 -15 -29 -28 -39 -28 -66 0 -110 -60 -203 -277 -107 -250 -138 -307 -182
-334 -21 -12 -39 -23 -40 -24 -7 -4 -54 -256 -69 -365 -22 -171 -15 -398 15
-492 21 -64 76 -159 96 -165 6 -1 25 44 43 101 29 90 39 110 75 143 50 46 110
65 191 61 l59 -3 37 -185 c35 -172 124 -524 220 -870 108 -384 173 -668 244
-1052 9 -48 28 -114 43 -148 25 -59 26 -64 15 -138 -7 -42 -12 -98 -12 -124 0
-26 -4 -49 -9 -53 -21 -13 18 -354 65 -566 32 -145 61 -252 179 -649 68 -231
135 -503 136 -557 2 -62 -39 -173 -95 -261 -24 -37 -51 -83 -61 -102 -10 -19
-40 -59 -67 -87 -95 -102 -133 -233 -94 -325 9 -21 16 -53 16 -71 0 -83 5 -90
98 -132 298 -132 521 -136 916 -16 l91 28 6 54 c4 30 12 81 19 114 20 97 8
195 -34 281 -20 39 -36 78 -36 86 0 20 -36 84 -83 147 -47 62 -68 131 -112
355 -18 95 -25 163 -26 260 0 72 -4 154 -8 181 l-7 50 72 -37 c88 -44 164 -56
248 -39 114 24 211 87 270 175 49 74 66 147 66 286 0 136 3 147 107 424 83
222 88 245 88 401 -1 151 -17 196 -104 284 -36 38 -77 75 -90 84 l-24 16 26
148 c43 241 50 325 52 583 2 238 3 247 29 313 21 55 26 84 26 160 0 86 5 107
66 302 62 199 104 357 119 453 11 66 40 76 186 69 102 -6 120 -5 139 11 24 19
29 62 16 128 -7 41 -7 42 28 54 112 37 208 233 189 390 -5 47 -5 48 26 55 74
16 132 131 153 302 l12 96 -35 29 c-116 99 -165 128 -309 181 -81 31 -199 69
-262 86 -108 29 -201 63 -290 106 -33 16 -44 34 -121 194 -73 151 -107 248
-107 302 0 5 23 20 51 34 29 14 70 40 91 57 39 30 39 30 71 13 31 -16 34 -16
92 5 48 18 74 38 135 100 99 102 105 139 50 307 -43 131 -70 175 -154 256 -71
68 -71 68 -36 62 42 -8 115 -32 141 -46 41 -22 17 19 -53 90 -66 66 -206 171
-229 171 -5 0 30 44 78 98 97 108 149 179 140 189 -4 3 -34 -8 -67 -26 -33
-18 -92 -43 -130 -56 l-70 -24 0 38 c0 95 -2 93 154 159 77 33 160 65 183 71
64 17 383 17 483 0 59 -11 103 -12 147 -7 77 11 244 54 252 65 3 5 21 30 39
56 18 26 47 76 63 110 l29 63 168 -23 c326 -45 310 -44 1272 -73 368 -11 457
-18 642 -50 97 -17 129 -18 190 -10 188 26 312 82 371 167 23 33 71 72 179
144 86 58 149 107 153 119 10 30 -13 77 -40 84 -16 4 -44 -7 -98 -40 -64 -39
-78 -44 -96 -35 -29 16 -47 4 -115 -71 -31 -34 -56 -58 -56 -54 0 3 63 114
140 245 77 131 140 245 140 255 0 28 -46 66 -79 66 -31 0 -67 -34 -97 -92 -9
-16 -18 -28 -21 -25 -2 3 0 14 6 25 13 25 -3 88 -25 96 -12 5 -15 14 -10 39
16 86 -113 122 -138 39 -3 -9 -24 -127 -47 -262 -32 -191 -47 -256 -67 -293
-14 -26 -30 -52 -37 -57 -7 -6 -45 2 -105 21 -148 46 -432 113 -695 164 -132
26 -301 62 -375 80 -331 83 -520 86 -789 16 l-73 -19 -156 24 c-86 13 -160 24
-164 24 -5 0 -15 27 -25 60 -16 58 -18 61 -57 71 -23 6 -76 21 -118 34 -90 28
-183 45 -251 45 -44 0 -48 -2 -64 -35 -16 -33 -19 -35 -52 -29 -71 13 -144 44
-212 89 -38 26 -69 49 -69 51 0 3 4 14 10 24 9 16 1 20 -68 39 -42 11 -91 23
-108 27 l-31 6 34 81 c80 189 111 418 84 618 -11 83 -55 274 -85 372 -9 26
-11 45 -6 42 6 -4 10 -12 10 -19 0 -28 157 -259 231 -340 55 -59 261 -246 272
-246 2 0 -33 57 -79 126 -46 69 -113 179 -149 244 -65 117 -235 461 -235 475
0 4 36 -27 80 -68 190 -182 342 -260 559 -286 95 -12 138 -9 59 4 -81 13 -233
67 -330 117 -188 96 -324 225 -403 382 -36 73 -54 128 -89 283 -101 435 -188
612 -417 843 -190 193 -370 279 -585 280 -95 0 -157 -10 -275 -46 l-87 -26
-63 21 c-174 57 -386 82 -514 62z m1828 -2426 c0 -203 -4 -392 -9 -419 l-9
-49 -90 2 c-49 1 -91 4 -92 5 -2 2 10 32 26 67 88 196 141 478 141 757 0 71 3
132 8 136 16 17 25 -148 25 -499z m-2179 -21 c51 -107 139 -244 187 -289 16
-17 28 -23 25 -15 -13 35 -96 351 -95 363 0 6 8 -6 17 -29 25 -60 88 -163 127
-209 l34 -40 -24 63 c-13 34 -22 62 -19 62 2 0 25 -16 50 -36 45 -33 233 -147
341 -205 l49 -27 -5 -48 -6 -48 -45 -8 c-25 -4 -59 -10 -76 -13 -28 -5 -34 -1
-52 28 l-20 34 -73 -4 c-50 -3 -130 5 -248 24 l-174 28 -14 45 c-35 116 -75
334 -88 475 -3 39 -8 93 -11 120 -4 44 0 37 35 -62 22 -62 60 -156 85 -209z
m1890 99 c-37 -136 -101 -318 -152 -433 l-47 -105 -103 -3 c-99 -3 -103 -4
-123 -31 l-21 -28 -59 15 -58 16 -6 46 c-3 25 -8 61 -10 80 -4 35 -3 36 88 91
153 95 208 152 289 304 21 39 38 67 38 64 0 -10 -84 -244 -124 -344 l-35 -90
35 40 c98 111 249 335 288 430 25 60 25 39 0 -52z m86 -129 c-19 -150 -62
-383 -75 -404 -3 -6 -30 -10 -60 -10 l-54 0 45 87 c48 94 110 277 139 411 10
45 20 81 22 79 1 -2 -6 -75 -17 -163z m-2135 46 c15 -52 50 -153 77 -225 28
-71 52 -137 55 -146 4 -13 -5 -15 -59 -11 -35 3 -66 9 -69 14 -3 4 -11 91 -18
191 -6 100 -14 205 -17 232 -4 28 -4 48 -1 45 2 -3 17 -48 32 -100z m2491
-475 c-2 -6 -21 -9 -46 -7 -34 3 -40 7 -34 21 27 65 56 178 67 259 l12 97 3
-180 c1 -98 1 -184 -2 -190z m-1227 -4852 c7 -82 19 -197 28 -258 15 -110 28
-372 25 -515 -6 -245 -6 -935 0 -1045 3 -72 3 -110 -2 -85 -4 25 -11 133 -14
240 -8 210 -30 674 -46 940 -38 635 -47 850 -33 863 23 24 30 -1 42 -140z"/>
</g>
</svg>
