<?xml version="1.0" standalone="no"?>
<!DOCTYPE svg PUBLIC "-//W3C//DTD SVG 20010904//EN"
 "http://www.w3.org/TR/2001/REC-SVG-20010904/DTD/svg10.dtd">
<svg version="1.0" xmlns="http://www.w3.org/2000/svg"
 width="1280.000000pt" height="703.000000pt" viewBox="0 0 1280.000000 703.000000"
 preserveAspectRatio="xMidYMid meet">
<metadata>
Created by potrace 1.15, written by Peter Selinger 2001-2017
</metadata>
<g transform="translate(0.000000,703.000000) scale(0.100000,-0.100000)"
fill="#333333" stroke="none">
<path d="M12035 7011 c-139 -63 -167 -294 -52 -419 l22 -24 -130 7 -130 7 -38
39 c-34 35 -38 43 -31 72 24 97 -21 167 -108 167 -52 0 -74 -23 -133 -141
l-55 -109 -88 6 c-103 8 -120 18 -103 65 24 69 4 126 -55 154 -75 36 -124 3
-190 -127 -29 -57 -38 -68 -59 -68 -41 0 -116 -44 -171 -99 -48 -48 -104 -142
-104 -175 0 -8 -8 -19 -17 -24 -14 -8 -2580 -815 -2952 -929 l-95 -29 -96 42
c-329 145 -761 234 -1130 234 -403 0 -843 -98 -1175 -261 -204 -100 -303 -191
-385 -353 -44 -87 -42 -103 13 -108 l32 -3 7 -125 c3 -69 9 -159 12 -201 6
-67 4 -78 -11 -84 -10 -4 -343 -110 -741 -235 -515 -162 -730 -234 -747 -250
-19 -18 -30 -21 -57 -15 -100 22 -205 95 -234 162 -17 39 -18 128 -3 189 8 31
8 49 2 55 -13 13 -347 12 -548 -2 -619 -42 -1109 -163 -1525 -374 -144 -74
-312 -181 -414 -265 -266 -217 -446 -520 -518 -868 -27 -131 -31 -397 -9 -531
12 -70 12 -102 1 -196 -17 -147 -8 -378 19 -503 77 -351 266 -666 534 -889
475 -395 1268 -692 2097 -785 172 -19 597 -16 740 5 237 35 444 101 705 226
403 193 725 470 935 806 48 77 150 283 150 303 0 7 -14 19 -31 26 l-30 13 1
233 c1 229 1 235 27 292 14 31 23 64 20 72 -3 7 -30 21 -59 31 -82 26 -108 37
-108 46 0 4 37 32 82 62 312 206 839 358 1241 357 343 -1 476 -95 381 -269
-23 -43 -25 -53 -13 -67 11 -14 32 -15 164 -10 602 26 825 87 1100 302 283
221 495 510 567 774 19 72 23 109 23 240 0 131 -4 168 -23 239 l-23 84 22 91
c39 160 28 357 -29 527 -18 55 -18 58 -1 80 25 32 45 96 65 206 28 161 -90 94
1188 669 615 276 1132 508 1147 515 26 10 34 8 92 -29 91 -60 169 -78 275 -63
45 7 89 14 97 17 9 4 15 0 15 -9 0 -30 58 -67 105 -67 52 0 77 19 113 85 l27
50 134 29 c113 25 135 28 139 15 3 -7 20 -29 38 -46 24 -25 41 -33 68 -33 59
0 85 19 118 84 17 34 32 62 33 64 2 2 58 16 126 32 156 35 238 68 314 125 107
80 164 172 186 299 36 211 -76 449 -229 486 -27 6 -62 18 -78 26 -37 20 -338
94 -378 94 -17 0 -49 -9 -71 -19z m-7395 -2605 c0 -5 -190 -116 -255 -149 -27
-13 -197 -73 -377 -132 l-328 -106 -72 16 c-97 23 -95 22 -78 28 26 10 1095
345 1103 346 4 1 7 -1 7 -3z"/>
</g>
</svg>
