<svg id="Layer_1" data-name="Layer 1" xmlns="http://www.w3.org/2000/svg" viewBox="0 0 1725.4 792">
  <defs>
    <style>
      .cls-1{fill:#070707}.cls-2{fill:#0cf}.cls-3{fill:#fefefe}
    </style>
  </defs>
  <path class="cls-1" d="M976.2 279.6a93 93 0 01-6.8-11.8 49.8 49.8 0 01-4.5-19 36.1 36.1 0 014.5-18.9 50.2 50.2 0 0133.1-25.6c12.6-3.1 25.1-2 37.4 1.9a39.6 39.6 0 015.3 2.3 5.7 5.7 0 013.4 5.7l-.3 11.6c-.2 4.4-.5 8.9-1 13.4-.2 2.2-.3 4.5-1.7 6.4a2 2 0 01-1.2.6c-.5 0-.8-.5-1-.9a8.8 8.8 0 01-.5-3.7 37.5 37.5 0 00-.8-7.7c-2.8-11.6-10.7-18.2-21.5-21.7a30.5 30.5 0 00-21.6 1c-11.2 4.7-16.6 13.5-17.7 25.3a41.7 41.7 0 004.3 22.3 75.2 75.2 0 007.7 12.7c3 4 6 7.9 9.2 11.7a382 382 0 0028.2 30.1l28.7 27 4.6 4c1.5-.8 2-2 2.6-3a72.3 72.3 0 009.9-36.2 20.4 20.4 0 00-.6-5.2c-1.5-6-6-9.7-12.3-10.4-1.7-.2-3.5.2-5.1-.8a2.4 2.4 0 01-.8-1c-.2-.7.2-1 .6-1.2a7 7 0 012.3-.7h4.8c7.7.2 15.3.7 23 1.6.5 0 1 0 1.4.2 3.5.5 4.6 1.7 4.6 5.4a47.2 47.2 0 01-1.3 11c-3.5 15-10.4 28.4-19.3 41l-2.6 3.6a3.3 3.3 0 001.5 2 209.9 209.9 0 0032 22.7 77 77 0 0020 7.9 43.4 43.4 0 007.7.9 4.7 4.7 0 012.7.7c.5.4.6 1.4 0 1.6a7.3 7.3 0 01-2.1 1 19.6 19.6 0 01-3.4.2h-24a48 48 0 01-28.4-8.5q-7.8-5.3-15.1-11l-2.7-2a1.6 1.6 0 00-2.5.2l-2 2a78.4 78.4 0 01-45.9 22 71 71 0 01-37.2-4.5 54 54 0 01-31.2-57.6 63 63 0 0116.9-33.3 87.3 87.3 0 0115-12.5c1.3-.8 2.7-1.3 3.7-2.8zm4 7a44 44 0 00-16.4 17.4 46.1 46.1 0 00-5 18.4c-.8 12 1.5 23.2 7.9 33.4a45.2 45.2 0 0031.5 21.5 64.2 64.2 0 0051.6-15c.7-.6 1.7-1 1.4-2.5a664 664 0 01-37.5-34.7 408.6 408.6 0 01-33.6-38.6zM446 285.1l4.5 1.8a68.6 68.6 0 0121.9 14.4 49 49 0 01-5.9 75 62.5 62.5 0 01-29.7 11.2 105.3 105.3 0 01-17.2.5c-12.1-.5-24.2-1.8-36.4-1l-12.5.5a4.3 4.3 0 01-3.1-.7 1.7 1.7 0 01-.6-1.2 1.4 1.4 0 01.7-1 9 9 0 012.3-.6l4.8-.6a7.5 7.5 0 006.4-5.6 43.1 43.1 0 002-11.3c.3-8.2.8-16.3.8-24.5V238c0-5.4-.1-10.6-.7-15.9a26.8 26.8 0 00-.5-3.8 9.9 9.9 0 00-6.8-7.4c-3-1-6.3-1.1-9.5-1.5-1.1-.1-2.6.3-3.2-1.3-.3-1.1 1-2 3.2-2 7.9.1 15.7.2 23.5.5 3.4.1 6.8.2 10.1 0 8.2-.4 16.3-.6 24.5-.4a58.4 58.4 0 0121 4.3A35.1 35.1 0 01466 256a49.7 49.7 0 01-7.5 14.4 115.2 115.2 0 01-10 11.7l-2.6 3zm-42.7 42V355a119.5 119.5 0 001 12 11.3 11.3 0 006.7 9.6 31.8 31.8 0 006.8 2.4 67.2 67.2 0 0014.3 1.6 37.6 37.6 0 0013.6-2.3 29.6 29.6 0 0020.2-24c1.4-8 .6-16-1.3-23.8a52.4 52.4 0 00-20.5-31.4 37.1 37.1 0 00-13.4-6.3c-8.3-1.9-16.8-1.7-25.3-1.7-1.4 0-2 .7-2 2v3.4zm0-78.5v31.2c0 3.1.5 3.7 3.4 4a114.8 114.8 0 0024.4.2 14.6 14.6 0 009.2-4.6 35 35 0 008.2-14.4 47 47 0 00.7-21 43.8 43.8 0 00-7.2-19 27.4 27.4 0 00-17-11.4 42.9 42.9 0 00-16.2 0 27.5 27.5 0 00-3.8.8 2.2 2.2 0 00-1.6 2v4zM579.4 385.1a12.5 12.5 0 014.4-.5 13.8 13.8 0 0012.2-8 80.7 80.7 0 003.3-7.5l36.3-92.8a27.6 27.6 0 013-6.5 1.6 1.6 0 012.7 0 26 26 0 012 3.8l12.5 30.1 25 61.2a92.8 92.8 0 005 10.4c3.2 6 8 9.4 15 9.4a5.8 5.8 0 011.7.4 1 1 0 01.5.8 1 1 0 01-.3.7 8.9 8.9 0 01-2.8.7l-28.7-.7c-.6 0-1.4.2-1.5-.7a1 1 0 01.6-1.2c2.1-1.3 1.9-3 1-5l-11.3-28-2-4.9c-.6-1.8-1.8-2.3-3.6-2.3h-34.1a2.6 2.6 0 00-2.5 1.8l-1 2.6c-2.6 7-5.3 14.1-7.8 21.2a31 31 0 00-2.3 9.2c-.1 3.4 1 4.8 4.2 5.3 1 .1 2 0 2.9.2a1 1 0 011 .9c.1.8-.5 1.1-1 1.3a5.6 5.6 0 01-2 .2l-3.8-.1a124.2 124.2 0 00-18.7 0l-6.2.2a4.3 4.3 0 01-3.5-1.1 1 1 0 00-1.6-.1c-1.5 1.5-3.4 1.6-5.4 1.6-10 0-20.1 0-30.2-.6a155 155 0 00-23 .1c-1.9.2-3.8.2-5.7.2a4.4 4.4 0 01-1.9-.4 1.8 1.8 0 01-.7-1 1 1 0 01.7-1.1l2.9-.5c4.4-.8 5-1.3 5.8-5.6a47.6 47.6 0 001-7c.2-8.4.5-16.7.5-25V295c0-4-.2-8-.4-12a17.7 17.7 0 00-.4-3.4c-.6-2.3-1.8-4-4.4-4.5l-4.2-.7c-1-.2-2-.1-2.9-.4-.3 0-.7-.6-.8-1a.9.9 0 01.7-1 9.3 9.3 0 012.3-.4c3.2 0 6.4 0 9.6.2 14.2.6 28.5.3 42.7.3a43.7 43.7 0 0011-1.3c1.4-.4 2.3.1 2 1.4-1.2 5.4-1.3 10.8-2 16.2a3 3 0 01-.4 1.4 1.7 1.7 0 01-1.1.7 1.4 1.4 0 01-1-.8c-.3-1.2-.3-2.5-.5-3.8-.4-3.1-2-5.2-5.3-6a42 42 0 00-8.5-1.3c-6.5-.3-13-.3-19.6-.4-1.7 0-2 .5-2.2 2V321.3a1.5 1.5 0 001.5 1.5 3.7 3.7 0 00.5 0c9.3 0 18.6 0 27.8-.6a9.8 9.8 0 006.6-3.3.8.8 0 011.3 0 2 2 0 01.3.8 1 1 0 010 .4c-1.2 5.9-1.4 11.8-1.8 17.7a7.5 7.5 0 01-.2 1.4c-.2.6-.4 1.2-1.2 1.3s-1-.6-1.1-1.2l-.5-3.8c-.4-2.9-2.3-4.5-5-5.2a22.5 22.5 0 00-2.8-.5c-7.8-.9-15.7-.7-23.5-.8-1.5 0-2 .5-2 2v5.8l-.1 26.8c0 3 0 5.8.3 8.7.5 4.7 2.4 6.7 7 8a20 20 0 003.8.5 132.5 132.5 0 0017.3 0 28.7 28.7 0 003.3-.5c5.5-1 8.8-4.1 10-9.6a8.7 8.7 0 01.8-3.2 1.1 1.1 0 011.2-.6 1 1 0 01.8 1 47.6 47.6 0 01-.3 5.7c-.4 3.2-1 6.3-1.5 9.5-.1.5-.5 1.2.3 2zm57.7-91.1c-1 .8-1.3 2.1-1.7 3.3L622 335.2l-.5 1.3a1.2 1.2 0 001 1.7l1.9.1h26.8a12 12 0 001.9-.1 1 1 0 00.9-1.4l-1-2.7-6-16.1c-2.5-6.9-5-13.7-7.7-20.6-.4-1.2-.5-2.9-2.2-3.4zM1191.8 364.6l.8-13a14.4 14.4 0 01.9-4.6 1.5 1.5 0 011.6-.8 1.3 1.3 0 011.2 1.2l.1 3.3a32.7 32.7 0 001.2 8.6 27 27 0 0015 18.3 44.3 44.3 0 0032.3 2.5 31.2 31.2 0 0022.1-31.8 38 38 0 00-9-23.7 97 97 0 00-11.8-12c-5.8-5-11.8-9.8-17.7-14.7a130.7 130.7 0 01-18.5-18 53.8 53.8 0 01-11.2-21.6 49.5 49.5 0 010-24.2 38.7 38.7 0 0118-23.9 51 51 0 0120.3-6.9 91.5 91.5 0 0131.5 1.6 44.5 44.5 0 009.4 1.4c1.6 0 2 .6 2 2v2.4l-.8 22.5c-.1 1.6 0 3.3-.6 4.8a1.6 1.6 0 01-1.1.7 1.5 1.5 0 01-1.2-.6 10.2 10.2 0 01-.7-2.3l-1.5-7.5c-1.1-5-4-8.6-8.2-11.4a27.2 27.2 0 00-7.3-3.5 47.4 47.4 0 00-23.7-1.5c-13 2.7-22.6 12.6-21.9 28.9a30.2 30.2 0 006.7 17.6 79.7 79.7 0 008.6 9c4.7 4.4 9.7 8.4 14.7 12.4 5.2 4.2 10.5 8.4 15.6 12.7a99.2 99.2 0 0113.4 13.8c5.7 7.1 9.9 15 11.3 24A50 50 0 011266 379a48.2 48.2 0 01-22 10.1 83.5 83.5 0 01-40.8-1.6c-2.6-.8-5.1-2-7.6-3a5.9 5.9 0 01-4-6v-13.9zM1446.3 387.4a175 175 0 00-28.5-.1c-2.2.1-4.4.5-6.6-.3a1.4 1.4 0 01-.7-1 1.6 1.6 0 01.6-1 4 4 0 011.4-.3l2.9-.5c2.5-.2 3.7-1.7 4.2-3.9a50.4 50.4 0 001.3-9.5l.3-13.4v-64.8l-.3-9a23.2 23.2 0 00-.4-3.9 5.5 5.5 0 00-4.8-4.7l-5.7-.7a2 2 0 01-1.7-.7.8.8 0 01.1-1.3 3.5 3.5 0 012.7-.7l12.5.3c13.7.5 27.5.3 41.2.2a36.3 36.3 0 009.5-1.3c1.8-.5 2.6.2 2.2 1.8a84.5 84.5 0 00-1.8 14.2 13.3 13.3 0 01-.2 2 2.3 2.3 0 01-1.4 1.8c-.6.2-1.2-.7-1.4-2.1l-.6-3.8a5.7 5.7 0 00-4.3-4.6 36.7 36.7 0 00-9.5-1.5c-6.4-.3-12.8-.3-19.1-.4-2 0-2.5.5-2.5 2.7v39.8c0 1.7.5 2.2 2.3 2.3h.5c8.5 0 17-.1 25.4-.6 3.2-.1 6-.7 8.2-3.2a1.4 1.4 0 011.3-.3c.3.1.3.8.5 1.2a1 1 0 010 .4c-1.1 6-1.4 12.1-2 18.2a4.5 4.5 0 01-.6 1.7c-.1.2-.6.2-.9.2l-.3-.2a6.7 6.7 0 01-.5-1.3l-.7-4.3a5.2 5.2 0 00-3.3-3.8 15.7 15.7 0 00-4.2-1c-7.8-1-15.6-.8-23.4-.8-1.8 0-2.3.5-2.3 2.3v34.4a61.2 61.2 0 00.6 7.7 7.4 7.4 0 005.6 6.5 21.1 21.1 0 005.2.9 149 149 0 0016.8 0l2.9-.3c5.8-1 9.5-4.2 10.6-10.1l.5-2.4c.2-.8.6-1.3 1.3-1.2a1.4 1.4 0 011.2 1.7l-1.3 11a37.8 37.8 0 01-1 4.6 4.2 4.2 0 01-4.1 3.4h-2zM1525.6 327.3v41.2a46.3 46.3 0 00.9 9.6c.8 3.7 2 5 6 5.8l7.1 1c.3 0 .7.6.9 1s-.3.9-.8 1a8.4 8.4 0 01-2.3.4h-5.7a187.2 187.2 0 00-25.4 0c-1.8 0-3.6.3-5.2-.5-.4-.1-.9-.5-.6-1.1.2-.3.3-.7.5-.7l3.3-.6a5.8 5.8 0 005.6-5.5 155.1 155.1 0 001.3-19.6v-68.1a80 80 0 00-.5-10c-.6-4.5-2-5.8-6.4-6.5-1.7-.3-3.5-.3-5.2-.5a1.6 1.6 0 01-1-1c-.3-.7.5-1 1-1.2a8.4 8.4 0 012.4-.3c2.4 0 4.8 0 7.1.2 7.6.4 15 .3 22.6 0a123.9 123.9 0 0119.6.4 48.2 48.2 0 0112.1 2.9 24.6 24.6 0 0116.5 24.5c-.3 14-6.7 24.4-19.3 30.8-8 4.1-16.7 5-25.6 4.5a2.4 2.4 0 01-1.4-.5 2.1 2.1 0 01-.6-1.2c0-.2.3-.6.5-.8a3.8 3.8 0 012.7-.6 33.8 33.8 0 008.6-.9l4.2-1a24.2 24.2 0 0017.3-26.6 29.4 29.4 0 00-9.6-19.8 23.8 23.8 0 00-15-6.6 49 49 0 00-13.4.8c-1.9.3-2.2.8-2.3 2.5v47zM1348.3 386.7l-14 .6c-1.4 0-2.9.3-4.2-.5a1 1 0 01-.4-.8c0-.3.2-.7.4-.8a13.7 13.7 0 012.3-.5c5.2-.8 6.2-1.8 7.1-6.8a43.8 43.8 0 00.8-6.6l.3-21.1V284v-3.4c0-1-.4-1.8-1.7-1.8h-1.4l-22 .3a44 44 0 00-7.2.8 10 10 0 00-7.4 5.5l-1.7 3.4c-.4.8-.8 1.4-1.8 1a1.3 1.3 0 01-.7-1.6v-.4c1-5.2 2-10.4 3.3-15.5.6-2.5 1.2-2.8 3.7-2 5.6 1.6 11.4 1.6 17.1 1.7h60.9a63.7 63.7 0 0013.3-1.3c1.5-.4 2.2.2 2.1 1.7 0 5.7-.2 11.5-.4 17.2a2 2 0 010 .5 1.5 1.5 0 01-1.2 1.4 1.3 1.3 0 01-1.3-1.2 13.5 13.5 0 01-.2-1.9c-.3-4-2.5-6.4-6.2-7.6a31.8 31.8 0 00-9-1.6l-21.5-.4c-2 0-2.3.2-2.3 2.1v72.9c0 6.5.4 13.1.6 19.6a25 25 0 00.8 5.7 5.7 5.7 0 004.9 4.6l5.2.8 2.4.2a1.1 1.1 0 011.1 1.2 1.3 1.3 0 01-1.3 1.2 38.6 38.6 0 01-4.3.1c-4.9 0-9.8-.3-16-.5zM848.2 281.5v6.3a23 23 0 01-.1 2.9c-.1.7-.2 1.6-1.3 1.6-.8 0-1-.6-1.2-1.3l-.6-2.8c-1-5.2-4-8.5-8.9-10.3a33.7 33.7 0 00-23.5-.6c-5.4 1.9-9.4 5.5-10.6 11.4a18.2 18.2 0 002.6 13.8 24.9 24.9 0 004.6 5.4 132 132 0 007.9 6.4c3.7 2.7 7.6 5.2 11.4 7.9a85.3 85.3 0 0114.3 12c4.4 5 7.8 10.5 9.1 17.1a30.4 30.4 0 01-22.6 36 68.6 68.6 0 01-35-.6 43.3 43.3 0 01-4.6-1.6 3.6 3.6 0 01-2.4-3.8l.4-13.9.6-5.2c0-.6.3-1.3 1-1.4 1 0 1.4.7 1.5 1.5a13.6 13.6 0 01.2 2c.3 8.1 4.7 13.4 12 16.3a34.8 34.8 0 0022.6 1.2 19.9 19.9 0 0011-30.8 32.1 32.1 0 00-6.6-7c-4.2-3.4-8.5-6.8-12.9-10s-9-6.7-13-10.5a53 53 0 01-9.5-10.8 27.2 27.2 0 01-3.7-20.7 25.4 25.4 0 0112.5-17.4 38.7 38.7 0 0117.3-5 73.9 73.9 0 0119.6 1.1 68.4 68.4 0 007.1 1 1.5 1.5 0 011.4 1.7c0 2.7-.2 5.4-.4 8.1zM1654.2 281.8v7.7a7.7 7.7 0 01-.5 2.3 1 1 0 01-.8.5 1.1 1.1 0 01-.8-.3 3.5 3.5 0 01-.6-1.2 102 102 0 01-1-4.2 11.1 11.1 0 00-6.6-7.8 32.4 32.4 0 00-26-1.2c-9.6 3.7-13.1 14.1-8.2 23.5a24.7 24.7 0 004.7 6 72.8 72.8 0 009.6 7.9c4 2.8 8 5.4 11.8 8.2a76.6 76.6 0 0114 12.4 34.7 34.7 0 017.6 13.7 30.6 30.6 0 01-20.6 37.6 58 58 0 01-14.2 2.2 65.2 65.2 0 01-22.8-2.5c-6.5-1.9-6.9-2.4-6.7-9 .2-4.8.5-9.5.9-14.3a5.6 5.6 0 01.5-1.9 1 1 0 011.1-.6 1 1 0 011 1 9.2 9.2 0 01.2 1.8c.4 9 5 14.6 13.3 17.4a35.5 35.5 0 0021.3.8 20 20 0 0011.2-30.8 37.9 37.9 0 00-8.4-8.5l-15.6-12c-3.3-2.5-6.5-5.2-9.6-8a48.8 48.8 0 01-8.2-9.3c-4.4-6.7-5.5-14-4-21.6a24.9 24.9 0 0111.6-16.4 38.5 38.5 0 0118.1-5.7 73.3 73.3 0 0120 1.3 62.3 62.3 0 006.7.9 1.6 1.6 0 011.5 2c0 2.8-.3 5.5-.5 8.1zM738.6 327.6v33c0 4.9.4 9.6.6 14.4a22 22 0 00.4 3.4c.6 3.1 2.3 5.1 5.7 5.5l7.6 1c.2 0 .5.4.6.7a.8.8 0 01-.5 1.1 6.6 6.6 0 01-2.3.6c-2.5 0-5.1 0-7.7-.2a180.3 180.3 0 00-23 0c-2 .2-4.1.5-6.1-.2-.4 0-.9-.6-.9-.9a1.4 1.4 0 01.8-1 33.1 33.1 0 013.4-.5 6.2 6.2 0 005.7-5.5 81.6 81.6 0 001-17.3l.1-79.1v-2c0-1.6-.2-1.7-2-1.8h-1l-22.1.3a42 42 0 00-7.1.8 9.8 9.8 0 00-7.4 5.5 219 219 0 00-1.7 3.4c-.4.8-1 1.3-1.9 1s-.9-1.2-.7-2l.6-3.3 2.5-11.2a11.2 11.2 0 01.8-2.3 1.7 1.7 0 012.3-1.1c6.2 2.2 12.6 2 19 2 19.7.3 39.3.2 59 0a71.6 71.6 0 0014.3-1.2c1.5-.3 2.1.2 2 1.7l-.3 16.8a5 5 0 01-.6 1.8 1.1 1.1 0 01-.7.4 1 1 0 01-1.1-.6 12.4 12.4 0 01-.4-2.4c-.4-4.2-2.8-6.6-6.7-7.8a34 34 0 00-8.5-1.4l-21.6-.4c-2 0-2.2.2-2.2 2.2v46.5z"/>
  <path class="cls-2" d="M199 367.4c-1 .6-1.9.1-2.7-.2a50.3 50.3 0 01-14.6-9.1 63.5 63.5 0 01-12.4-15.8 46.6 46.6 0 01-5.4-16.8 65 65 0 019-44.7 81.4 81.4 0 0121.6-22.9 135.6 135.6 0 0153.7-23.4l9.9-1.5c-14 4.6-21.1 7.9-31.2 14.2a102 102 0 00-31 30.3 74.3 74.3 0 00-12.2 52.5 77.4 77.4 0 0013 33.7c.8 1.2 1.9 2.2 2.2 3.7z"/>
  <path class="cls-1" d="M218.9 357.2L157 521c-1.3-1.8-1.2-3.6-1.2-5.2-.2-6.7-.4-13.4-.3-20.2a179.3 179.3 0 014.9-38.9 114.3 114.3 0 0113-32.8c3.8-6.3 7.8-12.5 12-18.5 10.2-14.3 20-29 29.7-43.6 1-1.5 1.7-3.2 3.7-4.6z"/>
  <path class="cls-2" d="M186.1 515.7c-.3-1.5.5-2.4 1-3.3a91.5 91.5 0 0120.3-24.7c7.6-6.7 16-12.3 24.6-17.6 12.3-7.5 25-14.3 37.6-21.2 7.3-4 14.7-7.8 21.7-12.2l9.1-6.2c1.2-.8 1.8-.6 2.1.6a42.3 42.3 0 011.4 13.3 30.9 30.9 0 01-1.2 7.6 23.2 23.2 0 01-8.7 12.3A61.3 61.3 0 01278 472c-8.4 3-17.2 4.8-26 6.7a322 322 0 00-23.2 5.7 73.5 73.5 0 00-31.8 19l-7.8 8.5-3.2 3.7z"/>
  <path class="cls-1" d="M156.9 309.2a14.8 14.8 0 01-.3 1.9 191 191 0 01-20.9 49.7 100.4 100.4 0 01-13 16.6 27.1 27.1 0 01-18.8 8.4 104.2 104.2 0 01-25.3-1.6c-3.9-.7-7.9-1.1-11.7-2.7 1.6-1.4 3.6-1.8 5.3-2.4a298.4 298.4 0 0034.7-16.3 106.8 106.8 0 0036-32.5 202 202 0 0011.6-18.2l1.8-3.2z"/>
  <path class="cls-2" d="M264.6 296.8c.6-.5 1.2-.2 1.8.1a58.5 58.5 0 0122.6 21c4 6.5 5 13.7 4.6 21.2a34 34 0 01-11 23.3 51.7 51.7 0 01-30 14.7 119.1 119.1 0 01-20.5.7 35 35 0 01-11.2-2.2 4.3 4.3 0 012.8-1 105.2 105.2 0 0037.8-15.8 55 55 0 005-3.8 34.6 34.6 0 0012.1-24.7 38 38 0 00-12-31.1c-.7-.8-1.8-1.2-2-2.4z"/>
  <path class="cls-1" d="M286.9 171.5l-12.2 45.8c-5.8 21.8-11 43.7-17.3 65.3q-2.6 9.2-5.7 18.3c-5 15-13.4 27.9-24 39.4a9.7 9.7 0 00-1 1.7c-1.4-1.4-.6-2.2-.3-3l45-126.8 14-39.3a17.6 17.6 0 01.8-1.7c0 .8.2.9.7.3z"/>
  <path class="cls-2" d="M140.3 641zM177.7 509.5z"/>
  <path class="cls-1" d="M198 214.3a33.2 33.2 0 01-3 14.7 20.1 20.1 0 01-4.3 6.3c-5 4.8-11.2 4.7-16.2-.2a22.3 22.3 0 01-5.3-9 36.6 36.6 0 010-23.5 23.7 23.7 0 014-7.6c5.5-6.8 13.1-6.9 18.7-.2a23 23 0 014 7.1 32.6 32.6 0 012.1 12.4zM1117.5 588h-11.4l.3-.9c3.2-.5 4.2-2.6 4.2-5.5v-25.9a13.8 13.8 0 00-.1-1.4c-.3-2-1.2-3.6-3.3-4.2l-1.3-.5c.4-1.1 1.3-.6 2-.6a22.9 22.9 0 012.8 0h2.4a15.8 15.8 0 012.4 0c1 .2 1.2 1 1.5 1.8l6.5 13.9 5.5 11.7c.3.7.5 1.5 1.5 1.7 1.3-1.1 1.6-2.7 2.3-4.1 3.5-7.5 7-15 10.3-22.7.8-1.6 1.7-2.5 3.6-2.4 2.5.2 5 0 7.7 0l-.4.9c-3 .3-4 2.1-4 4.9V583.5a3.1 3.1 0 002.5 3.1 7.7 7.7 0 012.6 1.3h-15.2c-.1-1.2 1-1 1.5-1.2 1.9-.5 2.5-1.8 2.8-3.5a17.3 17.3 0 00.1-2.4v-20.1a13.1 13.1 0 00-.2-1.9c0-.4-.3-.5-.7-.4l-.4.1-1.4 2.6-10.6 23c-.6 1.2-.8 2.8-2.2 3.6-1.4-.8-1.7-2.3-2.3-3.6l-10.6-23a26.6 26.6 0 00-1.4-2.5c0-.2-.5-.2-.8-.2l-.3.3a5.6 5.6 0 00-.2 1.4v21a17.3 17.3 0 000 2c.3 1.9 1 3.3 3.2 3.7a7.5 7.5 0 011.2.5zM1524.7 587.8H1510c4.6-2.4 4.8-2.5 4.8-7.8v-18.7a21 21 0 00-.2-2.4c0-.4-.3-.6-.6-.5s-.7.2-.8.4l-1.5 3-10.2 22.2c-.6 1.2-.8 2.8-2.2 3.6-1.2-.3-1.4-1.5-1.9-2.5l-11.2-24.3a16.6 16.6 0 00-1.5-2.4 1 1 0 00-.7.2 3 3 0 00-.4 1.3v22.6c.2 2.3 1 4 3.5 4.5a2.5 2.5 0 011 .3v.6h-11.4c-.2-1.2.9-1 1.5-1.2a3.6 3.6 0 002.7-3.5 28.6 28.6 0 00.2-3.3v-22.6-1.9c-.1-2.8-1.1-5-4.2-5.5-.4 0-.6-.2-.4-.7l.3-.2c3.2 0 6.3-.3 9.5.2 2 2.4 2.8 5.3 4.1 8 3 6 5.7 12.2 8.6 18.2.4 1 .5 2.3 1.9 2.6 1.3-1 1.6-2.6 2.3-4 3.5-7.5 7-15 10.3-22.6.9-1.9 2-2.7 4-2.5 2.4.2 4.8 0 7.2 0l-.1.8c-3.3.3-4.2 2.4-4.2 5.3V583.3a3.4 3.4 0 002.9 3.4c.5.2 1.4 0 1.4 1.1zM1374.4 420.6c5.9 11.3 11.3 22.8 17 34.1 1.6-.6 1.8-2 2.3-3l13.5-27.6 1.2-2.6c.2-.4.5-.8 1-.8s.7.5.8 1l2 13.7 3.6 25.7c.1.9.4 2-1 2.2-2 .4-3-.1-3.3-1.7l-3-22.8c-.3-1.5-.2-3-1.2-4.4-1.5.8-1.8 2.4-2.4 3.6l-11 22.3c-.6 1-.7 2.5-2.4 3-2.1-3-3.4-6.4-5.1-9.6l-5-9.9c-1.7-3.3-2.7-6.6-5.2-9.6-1 1.7-1 3.3-1.3 4.8q-1.4 11.2-3 22.3c-.2 1.9-1.5 2.5-3.4 2a1 1 0 01-.8-1l.5-4.8 5-34.6a2.5 2.5 0 011.2-2.3zM1197 463.3v-3.4V424a24.7 24.7 0 010-2.9 1 1 0 011-.9 3.9 3.9 0 01.4 0c6 0 12.1-.5 18.2.6a18.8 18.8 0 0115.6 14.3 24.4 24.4 0 01-.4 15.6c-2.5 6.6-7 11-14.3 12a23.9 23.9 0 01-3.3.5H1197zm4-21.6v14.8c0 2.1.3 2.4 2.2 2.4 3.6 0 7.3 0 11-.3 8-.7 13.3-5.6 14.4-13.5 1.2-9.2-3.2-19.2-15.4-20.2l-9.6-.5c-2.4 0-2.5.2-2.5 2.4v14.9z"/>
  <path class="cls-2" d="M301.4 150.2c1 1 1.5 2.6 2 4.1 4 10.5 7 21.2 8.3 32.4a52.1 52.1 0 01-.3 14.4 26.1 26.1 0 01-7.2 14.3 47 47 0 01-21 12 4.3 4.3 0 01-1.4-.2c-.2-1.3.8-1.6 1.5-2.2a73.8 73.8 0 009.6-9.4 46.8 46.8 0 0010.8-26.1 138.4 138.4 0 00-2.3-39.3z"/>
  <path class="cls-1" d="M1243 564c1.4-1.4 3.4-1.6 5.1-2.4.9-.4 1.8-1 2.7-.6s.6 1.7.8 2.6 1 1.4 1.7.9l2.2-1.9c4.4-3 8-2.4 11.4 2a4.4 4.4 0 00.8.7c1.3-.3 1.9-1.5 2.8-2.2a10.8 10.8 0 014.8-2.2 6.5 6.5 0 017.4 4 14 14 0 011 5.6v12c0 2 .3 3.8 2.6 4.5.4.1.5.4.3 1h-11.2a1 1 0 01.9-1.2 3.3 3.3 0 002.5-3.5c0-4.7.2-9.3 0-14-.3-4.9-3.8-6.4-8-4-2.1 1.3-3.4 2.8-3.2 5.4.2 3.4 0 6.7 0 10 0 4.6 0 4.6 4 7.3h-12c-.2-1 .4-1.1.8-1.2a3 3 0 002.4-3.2v-14.3a6.7 6.7 0 00-.5-2.4 3.9 3.9 0 00-3.6-2.6c-2.6-.1-4.6 1.2-6.3 2.9a3.6 3.6 0 00-.7 2.7v12.4c0 3.3.1 3.3 3.2 5.1v.5h-10a7.3 7.3 0 01-1.2-.1 1 1 0 01.9-1.1 2.8 2.8 0 002-2.9l.2-3.8c0-3.9 0-7.7-.2-11.5-.2-3.4-.3-3.4-3.6-4.5z"/>
  <path class="cls-2" d="M213 342.2c-1 0-1.4-.7-1.8-1.3a57.2 57.2 0 01-8-16.3 34.3 34.3 0 016.5-32.9c5.2-6.3 12-8.7 20-7.3 2.7.4 5.3.8 7.7 2-.5 1.1-1.4 1-2 1.2-13.3 2.8-20.7 11.4-24 24a46 46 0 00-.5 19c.5 3.3 1.4 6.5 2.1 9.8a2.2 2.2 0 010 1.8z"/>
  <path class="cls-1" d="M642.8 463.2c-1 0-1.9 0-2.8.2a3 3 0 01-2.8-1.5l-6.2-8a3057 3057 0 00-6.5-8.2 12.4 12.4 0 00-1.6-1.9 1.5 1.5 0 00-1.7-.2 1.6 1.6 0 00-.7 1.2l-.1 9v7.3c0 2-.4 2.4-2.6 2.3-.9 0-1.5-.4-1.6-1.4v-2.4-36c0-1-.3-2.2.5-3.3 5.2 0 10.4-.3 15.7 0 9.2.8 12.1 9 10 15.2a10.4 10.4 0 01-6.7 6.9 20.6 20.6 0 01-6.3 1c-.5 1.3.2 1.8.7 2.4l10.9 14c.7 1 1.8 1.8 1.8 3.4zm-16.2-38.8c-7.2 0-6.1-.7-6.2 5.9v1.4c.2 8.9-1.5 7.2 7.6 7.4a20.7 20.7 0 005.2-.6 7 7 0 00-.4-13.6 25.9 25.9 0 00-6.2-.5zM1006 441.4a22 22 0 0121.3-22.2 26.4 26.4 0 0111.7 1.8 22.4 22.4 0 017.5 5c1.6 1.8 1.5 2.5-.5 3.8a1.6 1.6 0 01-2.1 0l-2.4-2.4c-9-7.1-23-4.8-28.4 5-3.6 6.4-3.6 13.2.4 19.5s10.4 8.7 17.8 8.2a19 19 0 0012.3-5.8c1.1-1.1 1.5-1 2.8 0 1.6 1.1 1.6 1.6.3 3-6 6-13.3 7.9-21.5 6.7a21.7 21.7 0 01-19.1-22.6zM1289.5 420.3h24.2a3.4 3.4 0 01.6 2.4c0 1.2-.6 1.7-1.7 1.7h-17.3a1.2 1.2 0 00-1.2 1.2v11c0 1 .9 1.1 1.7 1.1h16.8c1.2 0 1.6.7 1.6 2.5 0 1-.2 2-1.5 2h-13c-1.7 0-3.8-.7-5 .4-1.5 1.3-.6 3.6-.7 5.5v9c0 1.3.6 1.8 1.8 1.7h16.3c1.8.1 2.1.6 2.1 2.4 0 1.7-.3 2-1.9 2H1294c-5 0-4.5.5-4.5-4.7v-38.2zM560.6 463.4h-2.5a2.2 2.2 0 01-2.3-1.5l-5.1-10.8a2.8 2.8 0 00-2.9-2H533a2.5 2.5 0 00-2.6 1.7l-4.5 9.5c-1.5 3.1-1.5 3-5.5 2.8-.5-.8 0-1.5.3-2.2l18.2-38.6a11.7 11.7 0 011-1.6.8.8 0 011.2 0 3.5 3.5 0 01.7 1.1l18.8 40.4a5.6 5.6 0 010 1.2zm-20.4-33.2c-1.4 2.8-2.8 5.4-4 8.2-.7 2-2.6 3.7-2 6.1 2 .7 4 .3 6 .4a31.2 31.2 0 003.4 0c1.2-.1 2.5.2 3.6-.3-1.7-5.4-5-12-7-14.4zM1141.9 463.1l-1.9.3a2.6 2.6 0 01-3-1.7c-1.6-3.4-3.3-6.6-4.7-10-.8-1.9-1.8-2.7-4-2.6h-13c-2.4-.2-3.5.8-4.3 2.8-1.2 3-2.9 5.8-4 8.7-1 2.4-2.5 3.1-4.8 2.7a5.8 5.8 0 01-1.1-.6l19.5-41.5c.2-.4.7-.7 1-1a2 2 0 011.4 1.4c4.5 8.7 17.9 38 18.9 41.5zM1122 430a53 53 0 00-6.8 15h11.9c1.2 0 1.6-.7 1-2l-6.1-13zM932.8 420c.5.5 1 .8 1.2 1.2l19.3 41.5a3.5 3.5 0 01-2.5.6 2.4 2.4 0 01-2.6-1.5l-4-8.2-1.1-2.6a2.7 2.7 0 00-3-2h-14.8a2.5 2.5 0 00-2.5 1.8l-4.5 9.5c-1.3 2.8-1.5 3.6-5.9 2.7 1.8-5 4.3-9.5 6.4-14.2 2.3-5 4.5-9.8 7-14.7 2.3-4.6 4-9.5 7-14.1zm-7 24.8H939a.6.6 0 00.4-.3 4.5 4.5 0 00.3-.6c-2.2-4.5-4-9.4-7-14.2-2.3 5-4.8 9.7-6.8 15zM495.5 587.6c-.2.5-.7.3-1.1.3H485c-.4-1.1.2-1.3.8-1.5a4.6 4.6 0 002.8-2.5 45.9 45.9 0 002-4.3l11.8-27.2c.6-1.4.9-3.1 2.3-4 1.5.5 1.6 2 2 3l11.8 27.8 1.7 4a5.8 5.8 0 003.8 3.4c.4 0 .9.3.7 1-.1.3-.4.4-.8.4H511c.2-.5.1-1 .3-1 2.8-1.6 3-2.1 2.3-4.7a4.6 4.6 0 00-.3-1c-1-2-1.1-4.5-2.9-5.8s-4-.5-6-.5h-7.2a2.2 2.2 0 00-2.2 1.4c-1 2-1.8 4-2.6 6.2-.8 2.4-.5 2.8 1.9 4l1.2.6v.4zm14-15c-1.7-5.2-3.7-9.5-5.6-13.8a.5.5 0 00-.8-.4 1.5 1.5 0 00-.7.6l-5.2 12.3c-.2.7 0 1.4.8 1.4h11.5zM441 587.5l-.2.4h-13.4c-.3-1 .3-1 .9-1.4 2-1 2.2-1.6 1.9-3.3a8 8 0 00-.5-1.3c-.9-2.2-1.2-5-3-6.4s-4.3-.5-6.5-.6h-6.7a2.2 2.2 0 00-2.3 1.3c-1 2.2-2 4.4-2.7 6.7-.7 1.9-.3 2.6 1.9 3.6.6.2 1.3.1 1.4 1.3l-5.4.2h-5c-.6-1.1 0-1.4.6-1.6a5 5 0 003-2.8l2.2-4.8 11.4-26.4 1.6-3.5a.8.8 0 011.5 0c.6 1 1.2 2.2 1.6 3.4l10.8 25.6.1.4c2.6 6 2.6 6 6.8 9.2zm-15.6-14.9c-.1-3-1.6-5.2-2.7-7.6s-1.4-5-3.6-7.1l-3.1 7.2c-1 2.3-2.5 4.7-2.7 7.5zM772.5 453c1.3 1.7 2.5 3.4 4 4.8a7.4 7.4 0 008.8 1.5 7.1 7.1 0 003.3-10 14.7 14.7 0 00-2.7-3.4c-1.7-1.6-3.6-3.1-5.5-4.6s-3.7-3-5.4-4.7a10.4 10.4 0 01-1.7-12.8c2.5-3.9 8-5.7 12.7-4.1a14 14 0 015.9 4c1.7 2 1.4 3.2-1.1 4.2a1.6 1.6 0 01-1.3-.2c-.9-.8-1.5-1.7-2.3-2.5a7.4 7.4 0 00-4.3-2 5.6 5.6 0 00-6.2 7.4 8.3 8.3 0 003 4.2l5.6 4.4a33.9 33.9 0 016 5.5c4.2 5.2 4.1 11.2 0 15.7a12.5 12.5 0 01-16.6 1.4 14.3 14.3 0 01-3.6-3.8c-1.7-2.4-3.1-3.2 1.4-5zM884.5 578.3A14 14 0 01874 588a20.4 20.4 0 01-10.4-.3c-6.8-2-10.9-6.7-12.6-13.3a22 22 0 011.6-15.4 19.3 19.3 0 0124-9.7l1.3.5c2.8 1 2.8 1 5.3-1.2 1.2 1 .8 2.6 1 4s.2 2.8.2 4.3a11 11 0 01-.3 4.7l-2.2-4.7a11.8 11.8 0 00-11.2-6.8c-5.2 0-9.3 2.4-11.5 7.3a26.5 26.5 0 00-.8 19.6c3.4 9.9 16.6 11 22.3 5.3l3.8-4.1zM806.3 587.9H795c-.2-1 .6-1 1.1-1.3a2.9 2.9 0 002-3l-.1-14.8a6 6 0 00-.3-2 3.8 3.8 0 00-1.7-2.1c-2.7-1.6-8.3 1-8.5 4-.2 5 0 10.2 0 15.3a2.6 2.6 0 001.9 2.5c.5.2 1.4.2 1.2 1.3h-11c-.3-1.1.5-1.1 1-1.4a2.8 2.8 0 001.9-2.6v-27.3-1.4c0-3.7 0-3.7-3.5-4.8.2-.7.9-.8 1.4-1 8-3 7-3.9 7 4.4v10a7.8 7.8 0 00.1 1c1 .6 1.5-.3 2-.8a11.6 11.6 0 015-2.9 6.2 6.2 0 017.4 3.6 11.8 11.8 0 011 5l.1 12c0 3.6 0 3.6 3.4 6.3zM1450.2 585.6c-1.1.7-2 1.4-3 1.9a9.2 9.2 0 01-9.5-.5 11.2 11.2 0 01-5.1-7.3 16.8 16.8 0 013-14.1c3.4-4.4 7.8-5.8 13-4 .7.2 1.2.6 2 .2 0-2.4.2-5 0-7.5 0-2.9-.2-3-3.4-4 .6-1.1 1.8-1.3 2.8-1.7 6.1-2.5 5.6-2.5 5.6 3.6v26.3c0 1.5 0 2.9.2 4.3a2.1 2.1 0 001.8 2c.5 0 1.4-.6 1.4.5 0 .3-.6.7-1 .8l-5.4 2.1c-1 .4-1.9 0-2-1.3a5.9 5.9 0 00-.4-1.3zm.5-10h-.1a63.5 63.5 0 000-7.1 6.3 6.3 0 00-5.1-5.7c-2.5-.5-5 1-6.5 3.9a6.8 6.8 0 00-.5.8 16.8 16.8 0 00.1 12.2 8.5 8.5 0 004.9 5 5 5 0 007.2-4.8v-4.2z"/>
  <path class="cls-2" d="M276.3 388a1.1 1.1 0 011.3 0 112.5 112.5 0 0120.3 14.3 55.1 55.1 0 014.8 5.3 13.2 13.2 0 012.8 12.5 16.6 16.6 0 01-3.1 6.8c-1.1 0-1.5-.7-2-1.4l-23.6-36c-.3-.4-.8-.9-.5-1.5z"/>
  <path class="cls-1" d="M1324.1 564.6c1.3-.3 2-1.4 3.1-2.1a10.9 10.9 0 014-1.7 6.2 6.2 0 017 4.3 16.7 16.7 0 011 5.7v11c0 3.5 0 3.5 3.3 6a55.6 55.6 0 01-5.8.1h-5.7c-.2-1.2.8-1.2 1.5-1.5a2.8 2.8 0 001.7-2.6 130.2 130.2 0 00-.1-15.3 7.8 7.8 0 00-.7-2.3 3.1 3.1 0 00-3-2c-2.8-.1-4.8 1.3-6.5 3.3a4 4 0 00-.6 2.7v11.5c-.1 2.7.7 4.6 3.3 5.5l.1.6h-11.2c0-1 .8-1 1.3-1.3a2.6 2.6 0 001.5-2.3l.2-4.8v-11c-.2-3.3-.2-3.3-3.6-4.4 1.2-1.4 3-1.6 4.6-2.3 1-.4 2-1.2 3-.7 1.3.5.6 2 1 3 0 .2.4.4.6.6zM452.6 564.9c1.4-.3 2-1.5 3-2.2a13 13 0 013.5-1.7 6.2 6.2 0 017.6 3.3 10.8 10.8 0 011 5v11c0 4.5 0 4.5 3.2 7.5H460v-.7c2.4-.8 3-2.4 3-4.8v-12-1.4c-.3-5-3.9-5.6-7-4-2.5 1.2-4 2.8-3.8 5.9.3 3.6 0 7.3 0 11 0 2.5 0 5 3.3 5-.1.7 0 1-.2 1h-11c-.3-1.2.8-1.1 1.3-1.4a3.4 3.4 0 001.7-3.3v-15.8c0-2.2-.5-2.4-3.8-3.6a40.2 40.2 0 018-3c1.4 1.3.2 3 1.1 4.2zM1429.2 587.8H1418c-.3-.8.4-1 .8-1a3 3 0 002.3-3.2v-14.4a8.2 8.2 0 00-.3-2 3.7 3.7 0 00-4.7-3 9.1 9.1 0 00-4.9 2.8 2.3 2.3 0 00-.8 1.7V584a2.6 2.6 0 001.8 2.6c.5.2 1.4.1 1.3 1.2h-11.2c3.2-2.8 3.2-2.8 3.2-7v-11-1.3c-.2-3.2-.3-3.3-3.7-4.5 1.2-1.2 2.8-1.5 4.3-2 3.9-1.6 3.9-1.5 4.4 2.6a1.4 1.4 0 00.2.4c1.3-.1 1.8-1.3 2.7-1.9a23.6 23.6 0 013.4-1.8c3.8-1.4 7 .1 8.5 4a11.3 11.3 0 01.6 4.2V581c0 4 0 4 3.3 6.8zM927.5 588H916a2 2 0 01-.7-.3c3-2.3 3.2-2.6 3.2-6.3v-12-1.4c-.4-2.8-.4-2.9-3.7-4 1.5-1.3 3.4-1.7 5.1-2.4 2.8-1.2 2.8-1 3.5 2 .3 1 .8 1.2 1.7.6s1.7-1.5 2.6-2c5.2-3.2 10-1 11 5a23 23 0 01.3 3.8v9.6c0 2.8-.7 6 3 7.3h-11.3c3.5-2.7 3.5-2.7 3.5-7.4v-9.1a18.6 18.6 0 00-.2-3.4c-.7-3.5-3-4.7-6.4-3.3a14.7 14.7 0 00-2 1.2 4.3 4.3 0 00-2.2 4v12.4c0 3.2.1 3.2 4.1 5.7zM1528.2 561.6h7.8c.7 1.5.4 3 .4 4.4v12a13.6 13.6 0 00.5 4.2 4 4 0 005.3 2.8 10.6 10.6 0 003.7-2.2 4 4 0 001.6-3.3v-12.4c0-2.3-.7-4.1-3.1-4.8-.2 0-.3-.4-.4-.8a37.6 37.6 0 017.6.2c1.2 2.4.6 5 .6 7.5.2 4.1 0 8.3.2 12.4 0 2.5.1 2.5 3.2 3.4l.2.6a32.8 32.8 0 01-6.4 2.7c-1.2.5-1.6.1-2-1.3l-.1-1.4a1 1 0 00-1.5-.5c-1.2.7-2.2 1.8-3.5 2.5a7 7 0 01-8.7-1.2 5.7 5.7 0 01-1.4-3c-.2-1.8-.5-3.5-.6-5.3v-10c0-2.7.4-5.7-3.4-6.5zM1484.9 437c1.5-.4 1.8-1.6 2.4-2.5 2.4-4 5-7.8 7.1-11.9 1.2-2.2 2.8-2.9 5-2.5a5.7 5.7 0 011 .4c0 1.3-1 2.3-1.7 3.4-3.2 5.4-6.5 11-9.9 16.4a9.5 9.5 0 00-1.5 5.4V461c0 2.1-.3 2.3-2.1 2.3s-2-.2-2-1.9c0-4.8-.2-9.6 0-14.3a13.3 13.3 0 00-2.4-8l-10-16.4c-.4-.7-1-1.3-.8-2.2.6-.6 1.4-.3 2.2-.4a3 3 0 013 1.7l7.6 12.2 2 3zM626.5 560.6l1.8.2c5 .7 6.7 2.4 7 7.4.2 3.2 0 6.4 0 9.6 0 1.8 0 3.5.2 5.3.1 1.9.6 2 2.8 1.3.3 0 .7-.2.9-.1.4.3.2.8-.1 1.1a32.4 32.4 0 01-2.5 2.2 4.5 4.5 0 01-3.7.8 3 3 0 01-2.2-2.3c-.3-1-1-1-1.9-.5l-2.7 1.9c-3.1 1.7-6.8 1.3-8.7-1.1a7 7 0 01.6-9.6 16 16 0 014.8-3l4.4-2c3.6-1.5 3.9-2 2.9-5.6a4.4 4.4 0 00-5.5-3.4 3.4 3.4 0 00-2.8 2.9l-.3 2.8a2 2 0 01-2 1.7 2.3 2.3 0 01-2.5-1.8c-.5-2 .3-3.4 1.6-4.8 2-2.3 4.9-2.7 7.9-3zm4 12.2a20.8 20.8 0 00-7.3 3.3 5.7 5.7 0 00-2.2 3 4.8 4.8 0 001.5 5.1 3.7 3.7 0 004.5.3l1.7-.9a3.4 3.4 0 001.9-3.5v-7.3zM1400.8 584a8.4 8.4 0 01-4.2 4c-2.1 1-3.7.5-5-1.8l-.5-.8a3.8 3.8 0 00-.4-.4c-1.3.8-2.6 1.8-4 2.5-3 1.8-6.8 1.2-8.7-1.2a7.3 7.3 0 010-8.5 12 12 0 014.4-3.5c2.3-1 4.6-2.2 7-3 1.5-.5 1.9-1.1 1.8-2.9a11 11 0 00-.3-2.4 4.5 4.5 0 00-6-3 3.1 3.1 0 00-2.4 2.8c0 1 0 2-.2 2.9a2.3 2.3 0 01-2.7 1.5 2.1 2.1 0 01-1.9-1.9 4.7 4.7 0 01.8-3.6 8 8 0 014.5-3.4 14.3 14.3 0 017-.3c4.3 1 5.8 2.6 6 6.8v12a34.9 34.9 0 00.2 3.8c.2 1.2 1 1.6 2.5 1l2-.7zm-9.8-11a19 19 0 00-6.6 2.9 7.8 7.8 0 00-1.8 1.6 5 5 0 000 6.2c1.5 1.7 3.2 2 5.6.7a17 17 0 002-1.2 2 2 0 001-1.6v-2.4c0-2 .3-4-.2-6.2zM551.5 553a1.2 1.2 0 01-.5.6h-.1l-.1.1h-.1c-1.4.9-2.6.3-3.6-.8l-1.4-2c-1.2-1.4-2.7-2.4-4.6-1.7s-2.5 2.4-2.5 4.2l-.2 5.8c0 1.9.2 2 2.2 2.2h2.9c.6 0 1.4 0 1.4.8s-.6 1-1.2 1l-3.8.1a1.4 1.4 0 00-1.5 1.6V582c.2 3.5.5 3.7 4 5l1 .2v.5h-13.9a2.4 2.4 0 010-.5c3.1-1 4-3.2 4-6.2v-15.3c0-2.2-.2-2.2-2.5-2.5a15 15 0 01-2-.2 1 1 0 01-.5-.7.9.9 0 01.8-1c1.3-.3 3.1.6 4-.8.6-1 .3-2.5.4-3.7.7-5 3.5-8.4 8.1-9.6a9 9 0 017 .8c1.9 1.1 3.4 2.4 2.7 4.9zM739 564v18.5c0 2.7 1.3 4.2 4 4.6.3 0 1-.1 1 .7h-13.8c-.2-.4 0-.7.5-.8 2.4-.6 3.4-2.3 3.4-4.6v-17.2a1.6 1.6 0 00-1.7-1.8 24 24 0 01-2.8-.3c-.2 0-.4-.5-.4-.8a.9.9 0 01.4-.6 5.5 5.5 0 011.4-.3l3-.2c.2-2 .2-3.7.6-5.3 1.3-6.9 8.6-10.8 14.5-7.9a6 6 0 012.9 2.5 2.5 2.5 0 01-.4 3 2.2 2.2 0 01-3 0c-1.2-1-2-2.4-3.2-3.5a3.5 3.5 0 00-6 2 10.9 10.9 0 00-.2 1.8 63 63 0 00-.1 3.4c0 4.4-.4 4.2 4 4.2a6.2 6.2 0 011 0c.5 0 1.2-.1 1.5.7.2.6-.4 1.1-1.6 1.2-1.6.2-3.2-.3-5 .7z"/>
  <path class="cls-1" d="M575.9 550.6a2.6 2.6 0 01-2.8 2c-1.5 0-2.7-.1-3.8 1-.9 1-2.1.6-3-.3s-1.6-2-2.5-2.9c-2.5-2.5-5.7-1.6-6.4 2a23.7 23.7 0 00-.4 4.8c0 4.3-.5 4.3 4 4.2 1.7 0 3 .7 2.6 1.3-.6 1-1.6.6-2.5.7h-2.4c-1.2 0-1.7.7-1.7 1.8v15.9c0 4.5.3 4.7 4.8 6.2a1.2 1.2 0 010 .5l-.4.1h-13c0-.3 0-.7.2-.8 2.6-.8 3.7-2.6 3.6-5.4v-16.3a10.6 10.6 0 00-.3-1.8l-1.6-.2c-1-.2-2.2.5-3-.8-.3-.6.9-1 3-1.2l1-.1.6-.2.9-6.3.3-1.3.8-1.2.5-.7c2.5-3.7 8.5-6.3 13.5-3.2l1.8 1a10.6 10.6 0 011.6-1.7c1.3-1 2.4-1 3.4 0a2.6 2.6 0 011.2 2.9zM1023.8 587.7c0-1 .8-.9 1.3-1a3.2 3.2 0 002.4-3.3v-18.7c0-1-.7-1.3-1.6-1.3a26.6 26.6 0 01-2.8-.3c-.2 0-.3-.5-.3-.8a1.3 1.3 0 01.4-.7.8.8 0 01.4-.1c1.2-.3 2.8.5 3.6-.6.6-.8.4-2.2.5-3.2a23.7 23.7 0 01.7-3.3c2.2-6.6 10.2-9.5 15.5-5.6a4.2 4.2 0 011.8 2.2 2.6 2.6 0 01-1 2.8 2.1 2.1 0 01-2.7-.2 9 9 0 01-1.3-1.4 22.5 22.5 0 00-1.5-1.9c-2.4-2.3-5.4-1.5-6.2 1.7a30.6 30.6 0 00-.5 8.7c1.3 1.2 3 .5 4.5.7a8 8 0 011.4.1 1 1 0 01.6.7.7.7 0 01-.6 1l-3.4.2c-2.4 0-2.6.2-2.6 2.8v16.3c.3 2.5 1.3 4.2 4 4.6a6 6 0 011 .1l.2.3-.1.4a1 1 0 01-.5 0h-12.4a3 3 0 01-.8-.2zM1183.8 574.4a15.2 15.2 0 01-1.7 6.9 12 12 0 01-12.8 7.2c-4.8-.5-9-4.1-10.4-9.3a15.4 15.4 0 011.8-12.4 12.2 12.2 0 0120.8-.6 13.3 13.3 0 012.3 8.1zm-5.5 2.9c0-4.7-.4-8.3-2.6-11.5-1.5-2-3.5-3.4-6.1-3a5.8 5.8 0 00-5 4.5 19.5 19.5 0 002.1 16.1 6 6 0 006.5 3c2.4-.4 4.2-2.3 4.8-5.3a31.6 31.6 0 00.3-3.8zM1054.6 588.5a11.2 11.2 0 01-10.2-5.4 15.3 15.3 0 011.5-18.6 12.3 12.3 0 0117.3-.5 15 15 0 01-1.2 22.1 11.4 11.4 0 01-7.4 2.4zm7.4-12.8a27.4 27.4 0 00-.3-3.3 14 14 0 00-3.4-7.7 5.8 5.8 0 00-9.6 1.4 9.4 9.4 0 00-1 3.2 23 23 0 00.8 10.4 15.9 15.9 0 002.1 4.2 6 6 0 005.9 2.6c2.5-.3 3.9-1.9 4.7-4.2.8-2 .7-4 .8-6.6zM712.2 588.5c-7.8.3-12.2-5.8-13-12a14.8 14.8 0 014.2-12.2 12.3 12.3 0 0116.6-.7 15 15 0 01-1 22.7 11.4 11.4 0 01-6.8 2.2zm7-12.5v-3a15.5 15.5 0 00-2.9-7.5c-3.5-4.6-9.3-3-10.7 1.3a12.7 12.7 0 00-.7 2.3 23.4 23.4 0 001 10.9 13.6 13.6 0 002.2 4.2c3.2 3.8 8.4 3 10.3-1.7.8-2 .8-4 .9-6.5zM1239.6 578.6c.2 2.7-1.3 4.7-3 6.6a8.8 8.8 0 01-5.7 3.2 11 11 0 01-12.2-7.2 17.3 17.3 0 01.3-13.5 11.5 11.5 0 0113.8-6.5 9.5 9.5 0 017 8.8c0 1-.5 1.6-1.8 1.6h-14.3c-1.6 0-2 .5-1.8 2a11.6 11.6 0 002.5 6.6c4 4.8 10.1 4.5 13.7-.6.3-.3.2-1.3 1.5-1zm-11.6-9h4.3c1.1 0 1.6-.7 1.4-1.9a5.6 5.6 0 00-4.6-4.8c-2.4-.5-4.9.8-6.4 3.3-1.3 2.3-.7 3.5 2 3.5h3.3zM831.4 578.4c-1.3 7.2-6 11-12.4 10a10.6 10.6 0 01-8.5-7 17.3 17.3 0 01.4-14 11.5 11.5 0 0114-6.2 9.6 9.6 0 016.6 9 1.2 1.2 0 01-1 1.3H815c-1.3 0-1.8.6-1.6 1.9a12.7 12.7 0 003.8 8c3 2.8 9.7 3.2 12.2-1.3a3.5 3.5 0 011.9-1.8zm-11.8-8.7h3.3c2.4 0 3.3-.5 2.2-3.2-1.8-4.4-7-5.1-10-1.3-.9 1.1-1.8 2.5-1 3.9.5 1 2 .5 3 .6h2.5zM966 572.1a11 11 0 003.5 9.1 8.4 8.4 0 008.4 2.2c2.3-.6 3.7-2.3 4.8-4.4.1-.3.6-.7 1-.3a1 1 0 01.2.9 16.7 16.7 0 01-2.3 4.7c-4 5.7-11.6 5-15.6 1.6-5.8-5-5.6-18 .3-22.5a11.5 11.5 0 0111.3-2 9.3 9.3 0 016 6.3c1.3 4 .2 4-2.8 4H967a5 5 0 00-.8.4zm5.9-2.4h2.8c3.1 0 4-1.5 2.5-4.1a5.7 5.7 0 00-9.7-.3c-.8 1-2 2.4-1.1 3.8.6 1.1 2 .5 3 .6h2.5zM903 571.6h-6.7c-2.2 0-2.7.6-2.3 3a12.3 12.3 0 002.5 5.6c3.9 4.8 10 4.6 13.7-.4l.8-1.1.4-.2s.5.4.5.6c-1 4.8-4.8 8.8-9 9.3-5.1.6-9.7-1.7-11.7-6.5a17.2 17.2 0 01.5-15.2c2-4 5.7-5.9 10.2-6 4.8-.1 8.4 2.7 9.8 7.5 1 3.2.2 3.5-2.4 3.5H903zm-3.2-2h3.4c3 .2 2.8-1.1 2.2-3.1a5.2 5.2 0 00-4.5-3.7 5.5 5.5 0 00-5.4 2.4c-.8 1.1-2 2.4-1.2 3.9.6 1 2 .4 3.1.5h2.4zM662.8 571.7a11 11 0 003.1 9.4c3.4 3.7 10.5 3.6 12.8-1 .4-.8.7-1.5 1.6-1.6-.5 4.6-3.3 8.6-7.2 9.6-4.5 1.2-8.5.2-11.6-3.5a11.5 11.5 0 01-2-3.3 17.9 17.9 0 01.4-14 11.5 11.5 0 0114-6 9.8 9.8 0 016.7 9 1.2 1.2 0 01-1.1 1.2l-4.3.1zm5.3-2v-.1h5.3a1 1 0 001-1.3c-.2-3-1.8-4.8-4.5-5.4a5.9 5.9 0 00-6 2.9c-.7 1-1.5 2-1 3 .4 1.5 1.8.8 2.8.9a19 19 0 002.4 0zM1311.3 581a8.3 8.3 0 01-2 3.7c-4 5.2-11.2 4.4-14.6 1.6s-4.7-6.3-4.9-10.4a17 17 0 011.5-8.4 11.5 11.5 0 0112.6-6.6 9.3 9.3 0 017.9 7.3c.7 3 .5 3.4-2.5 3.4h-13c-2 0-2.4.4-2.1 2.6a11.1 11.1 0 002.5 6.1c3.4 4 8.6 4.5 12.6 1l1-1zm-17-11.3h9c2.6 0 3.3-1.2 2.3-3.6a5.6 5.6 0 00-8-2.5c-2.2 1.2-3.3 3-3.3 6zM1619.3 577.8a9.6 9.6 0 01-4.3 8.9 9.9 9.9 0 01-11.6 0 16 16 0 01-2.1-2c-4-4.3-4.7-14.8.3-20 3.5-3.5 7.7-4.9 12.6-3.4a7.8 7.8 0 015 4.2 2.6 2.6 0 01-.7 3.4c-1.4.8-3.6.4-4.2-.9-.4-.8-.5-1.9-.9-2.7a3.8 3.8 0 00-4-2.6 6.3 6.3 0 00-4.8 2.9c-3 4.4-2 12.8 2 16.4a7.6 7.6 0 0010.3-.7 31.3 31.3 0 002.4-3.5zM1560.6 579.4a32.6 32.6 0 001.9 3.8 7.3 7.3 0 007 3.3 3.9 3.9 0 003.6-2.8 3.6 3.6 0 00-1-4 18.1 18.1 0 00-3.6-2.4c-1.7-1-3.4-1.7-5-2.7-3.6-2.3-4.7-5.3-3.4-9a7.8 7.8 0 018.5-4.8 21.3 21.3 0 012.3.5c1.3.3 2.5.7 3.7 0 .7-.5 1 .2 1 .5v7.4c-1.8-.9-1.8-2.5-2.6-3.6a6.4 6.4 0 00-6.6-2.8c-1.5.3-2.8 1-3.2 2.5a3.5 3.5 0 001.3 3.9 28.5 28.5 0 003.7 2.2c2 1 4 2 6 3.2a6.8 6.8 0 013.3 5.4c.3 4.2-2.6 7.7-7 8.3a16 16 0 01-5.2-.1c-1-.2-1.9-.6-2.8-.7-2.8-.4-2.8-.3-2.8-2.9l.1-5.1zM595.8 587.9h-11.7c-.3-1.2.7-1.2 1.3-1.5a2.4 2.4 0 001.3-2l.2-3.3v-25-1.8c-.2-3-.2-3-3.5-3.9.1-.8.9-.9 1.4-1 7.8-3 7-4.2 7 4.2v27.8c0 3.9 0 3.9 4 6.5zM1187.3 561.6h10.8l-.3.5c-2.4 2.2-2.4 2.2-1.4 4.7 1 2.9 2.3 5.6 3.5 8.4l2.1 4.7c.6-.2 1-.3 1-.5 2-4.5 3.9-9 5.7-13.7.7-1.7.5-2-2-4.1l3.8-.2h3.3c.6 1.2-.5 1.3-1 1.8a10.9 10.9 0 00-2.3 4.1l-7.2 17.2-1.1 2.7c-.3.6-.5 1.2-1.3 1.1s-1-.7-1.3-1.3l-1.5-3.5-6.7-15.9a13.2 13.2 0 00-4.1-6zM705.5 443.8V427c0-2.3-.2-2.5-2.4-2.6h-5.8c-.6 0-1.2-.3-1.3-1-.2-1-.4-2 .3-2.8a1.8 1.8 0 011.2-.4h20.2c1.5 0 1.7.4 1.7 2.1s-.3 2-1.9 2c-2 .1-4.1 0-6.2.2a1.4 1.4 0 00-1.5 1.5v35.5a2.4 2.4 0 01-3.5 1.7 1.8 1.8 0 01-.6-1.2l-.1-3.3-.1-14.9zM959.2 584a6.3 6.3 0 01-3.7 4c-3.4 1.5-6.5-.2-7.3-3.8a22.7 22.7 0 01-.3-4.3v-14c0-2.2 0-2.2-2.8-2.6a6.7 6.7 0 01-1-.4c1.4-1.8 3.6-2.7 4.8-4.6l3.4-5.5c.8 2.4.3 4.5.4 6.5.1 1.8.3 2 1.9 2l3.8.4c.2 0 .4.5.4.7a1 1 0 01-.5.7c-1.6.6-3.5-.1-5 .6a5 5 0 00-.5 2.9v13a16.2 16.2 0 00.1 2.8c.5 2.4 2 3.2 4.2 2.3.6-.3 1-1.2 2.1-.7zM640.3 563c2.1-1.7 4-2.8 5-4.5l3.5-5.6c1 2.8.2 5.6.8 8 1.6.8 3.2.3 4.8.6.4 0 1 0 1 .7 0 .9-.6 1-1.2 1.1-1.4.2-3.2-.5-4.2.5-1.4 1.3-.6 3.3-.6 5v11.5c.1 4.8 1.4 5.5 5.7 3.5a2.4 2.4 0 01.7 0c-.3 2-1.6 3-3.1 4a5.7 5.7 0 01-4.2.6 4.3 4.3 0 01-3.4-3 14 14 0 01-.6-4.8v-14.9c0-2 0-2-2.5-2.4l-1.8-.4zM1083 587.9h-11.7c-.4-.8.1-1.1.7-1.3 1.9-.6 2.3-2 2.3-3.7V568c0-2.8-.3-3-4-4a36 36 0 017.5-3.2c.3 0 .9.4 1.2.7s.1.6.2.9c.1.7-.4 1.7.6 2s1.2-.8 1.8-1.4a8.4 8.4 0 013.1-2 3.9 3.9 0 013.6.6 3.7 3.7 0 01.9 1 2.3 2.3 0 01-.2 2.8 2.1 2.1 0 01-2 1 4.4 4.4 0 01-1.8-.5c-1-.5-2-1.3-3-.5a5.4 5.4 0 00-2.9 4.2v13.8a3.1 3.1 0 002 3 2.4 2.4 0 011.8 1.5zM986.8 563.8c2.8-1.2 5.3-2.5 8-3 1.4 1 .4 2.6 1.2 3.6.3 0 .7 0 1-.2 1.2-1.2 2.2-2.7 4-3.2a3.8 3.8 0 014.6 1.5 2.5 2.5 0 01-2.4 3.8 3.4 3.4 0 01-1.4-.3c-1.1-.6-2.3-1.6-3.5-.5s-2.6 2.4-2.6 4.3v12.4c0 2.1.6 3.8 2.9 4.4.4.1.9.3.7 1.2h-11.6a.8.8 0 01.6-1.1c1.8-.6 2.5-1.9 2.5-3.7v-14.3c-.1-3.5-.2-3.5-4-5zM1359.8 583.3c-1.4 3.2-3.1 4.7-5.7 5.1a4.7 4.7 0 01-5.7-3.8 17.2 17.2 0 01-.4-3.8v-13.4c0-1.2.3-2.5-.4-3.8l-3.5-.5a52 52 0 004.6-4.4 48.5 48.5 0 003.3-5.3c.9 0 .9.7.9 1.3v6.5c2 0 3.6.2 5.3.3.2 0 .4.5.6.7a.7.7 0 01-.7 1c-1.5.2-3.1.2-4.6.3-.2.4-.5.7-.5 1v17.2a5.7 5.7 0 00.4 1.9 2.4 2.4 0 003.1 1.4 33 33 0 003.3-1.8zM762.5 562.5l2.7-2.3a17 17 0 004.3-6.3 1 1 0 01.7-.5c.5 0 .7.5.7 1v5.3c0 1 .4 1.8 1.6 1.8a31.8 31.8 0 013.8.3c.2 0 .4.4.4.7s-.2.6-.4.7a10.3 10.3 0 01-2.3.2c-2.6 0-3.1 0-3.1 2.9v15.3c.2 3.5 1.6 4.3 5 2.7l1.5-.5c-1 3-3 4.6-6 4.8a4.7 4.7 0 01-5.1-4 23 23 0 01-.2-3.8V566c0-2.1 0-2-2.5-2.5-.4-.2-1 0-1-1z"/>
  <path class="cls-1" d="M578.7 587.6l-.7.4h-10.3a.9.9 0 01.6-1.3 2.8 2.8 0 002.2-2.8v-17.2c0-2.2-2-2.2-4-2.7a33.9 33.9 0 017.6-3.1c.9-.3 1.2.4 1.3 1a21 21 0 010 2.8V581c.1 4.2.1 4.2 3.3 6.6zM1581.7 563.7l7.3-2.8a1 1 0 011.4.8 14.9 14.9 0 01.1 2.9v17.2c.1 3.5.1 3.5 3.4 6a45.9 45.9 0 01-5.7.1h-5.7v-.6c2.3-1 3.1-2.8 3-5.2v-13.4c-.1-3.5-.2-3.5-3.8-5zM599 563.9l8-3c.8-.4 1.2.3 1.3.8a15 15 0 01.1 2.9v17.2c.1 3.4.2 3.4 3.5 6l-5.8.1h-5.9c3.3-3 3.4-3 3.4-7.8 0-4.1 0-8.2-.3-12.4 0-2.7-.2-2.7-4.2-3.9zM608.8 550a2.9 2.9 0 01-5.7-.2 3 3 0 012.7-2.7 3 3 0 013 3zM1590.9 550a2.7 2.7 0 01-2.7 2.7 2.8 2.8 0 01-3-2.9 2.9 2.9 0 115.7.2z"/>
  <path class="cls-2" d="M177.8 509.5l1.9-2c-.8.6-1 1.8-2 2z"/>
  <path class="cls-1" d="M1310.3 580.3a2.4 2.4 0 01.2-.8c.2-.3.6-.7.9-.7.5 0 .5.6.4 1a11.2 11.2 0 01-.5 1.2z"/>
  <path class="cls-2" d="M140.3 641a3.9 3.9 0 01.6.4v.4l-.5-.8zM179.7 507.6l.1-.2v.2h-.1z"/>
  <path class="cls-3" d="M980.1 286.5a408.6 408.6 0 0033.6 38.6 664 664 0 0037.5 34.8c.3 1.3-.7 1.8-1.3 2.4a64.2 64.2 0 01-51.7 15 45.4 45.4 0 01-31.5-21.4 54.6 54.6 0 01-7.9-33.5 46.1 46.1 0 015-18.4 44 44 0 0116.4-17.5zM403.3 327.1v-30.7-3.4c0-1.4.6-2 2-2 8.6 0 17-.2 25.4 1.7A37.1 37.1 0 01444 299a52.4 52.4 0 0120.5 31.4 56.9 56.9 0 011.3 23.8 29.4 29.4 0 01-20.2 24 37.6 37.6 0 01-13.6 2.2 67.2 67.2 0 01-14.3-1.5 31.8 31.8 0 01-6.8-2.4 11.3 11.3 0 01-6.8-9.7 119.5 119.5 0 01-.8-12V327zM403.3 248.6v-28.3-3.8a2.2 2.2 0 011.7-2.1 27.5 27.5 0 013.7-.9 42.9 42.9 0 0116.2 0A27.4 27.4 0 01442 225a43.8 43.8 0 017.3 19c1 7 1.3 14-.8 21a35 35 0 01-8.2 14.4 14.6 14.6 0 01-9.2 4.6 114.8 114.8 0 01-24.4-.2c-2.9-.3-3.3-1-3.4-4v-31.2zM637.1 294c1.7.5 1.8 2.1 2.3 3.4L647 318l6 16 1 2.8a1 1 0 01-1 1.3 12 12 0 01-1.9.2h-28.7a1.2 1.2 0 01-1-1.8l.5-1.3 13.4-37.9c.4-1.1.6-2.4 1.7-3.3zM1201 441.7v-15c0-2.1.3-2.3 2.6-2.3l9.6.5c12.2 1 16.7 11 15.4 20.2-1 8-6.4 12.8-14.4 13.5l-11 .3c-1.9 0-2-.3-2-2.4l-.1-14.8zM626.6 424.4a25.9 25.9 0 016.2.5 7 7 0 01.4 13.6 20.7 20.7 0 01-5.2.6c-9.1-.2-7.4 1.5-7.6-7.4v-1.4c0-6.7-1-5.8 6.2-6zM540.1 430.2c2.2 2.4 5.4 9 7.1 14.4-1.2.5-2.4.2-3.6.3a31.2 31.2 0 01-3.4 0c-2-.1-4 .3-6-.4-.6-2.4 1.3-4.1 2-6 1.2-2.9 2.6-5.5 4-8.3zM1122 430l6.2 13c.6 1.3.2 2-1 2h-12c.6-3.4 4.2-11.3 6.9-15zM925.9 444.8c2-5.5 4.5-10 6.9-15 2.9 4.7 4.7 9.6 7 14a4.5 4.5 0 01-.4.8.6.6 0 01-.4.2zM509.5 572.7H498c-.8 0-1-.7-.7-1.4l5.2-12.3a1.5 1.5 0 01.7-.5.5.5 0 01.8.3c1.8 4.4 3.9 8.7 5.6 13.9zM425.4 572.6h-12.1c.2-2.8 1.7-5 2.7-7.5l3.1-7.2c2.2 2 2.6 4.7 3.6 7s2.6 4.8 2.8 7.7zM1450.7 575.7v4.3a5 5 0 01-7.2 4.7 8.5 8.5 0 01-5-5 16.8 16.8 0 010-12.1 6.8 6.8 0 01.4-.9c1.5-2.8 4-4.4 6.5-3.9a6.3 6.3 0 015.1 5.7 63.5 63.5 0 010 7.2zM630.6 572.8v7.4a3.4 3.4 0 01-2 3.5l-1.7.9a3.7 3.7 0 01-4.4-.3 4.8 4.8 0 01-1.5-5.2 5.7 5.7 0 012.2-3 20.8 20.8 0 017.4-3.3zM1391 573c.5 2.2.2 4.2.3 6.2v2.4a2 2 0 01-1 1.6 17 17 0 01-2 1.2c-2.5 1.2-4.2 1-5.6-.7a5 5 0 010-6.2 7.8 7.8 0 011.7-1.6 19 19 0 016.6-2.9zM1178.3 577.3a31.6 31.6 0 01-.3 3.8c-.6 3-2.4 5-4.8 5.3a6 6 0 01-6.5-3 19.5 19.5 0 01-2.1-16 5.8 5.8 0 015-4.6c2.6-.3 4.6 1 6 3 2.3 3.2 2.8 6.8 2.7 11.5zM1062 575.7c0 2.6 0 4.6-.8 6.6-.9 2.3-2.3 3.9-4.8 4.2a6 6 0 01-5.8-2.6 15.9 15.9 0 01-2.2-4.2 23 23 0 01-.8-10.4 9.4 9.4 0 011-3.2 5.8 5.8 0 019.7-1.4c2 2 3 4.8 3.4 7.7a27.4 27.4 0 01.3 3.3zM719.3 576c0 2.5 0 4.5-.9 6.5-1.9 4.7-7 5.5-10.3 1.7a13.6 13.6 0 01-2.3-4.2 23.4 23.4 0 01-.9-10.9 12.7 12.7 0 01.7-2.3c1.4-4.2 7.2-5.9 10.7-1.3a15.5 15.5 0 012.8 7.6l.2 2.9zM1228 569.7h-3.3c-2.7 0-3.3-1.2-2-3.6 1.5-2.5 4-3.8 6.4-3.3a5.6 5.6 0 014.6 4.9c.2 1.2-.3 1.9-1.4 2h-4.3zM819.6 569.7h-2.4c-1.1-.1-2.6.4-3.1-.6-.8-1.4.1-2.7 1-3.9 3-3.8 8.2-3.1 10 1.3 1.1 2.8.2 3.3-2.2 3.2h-3.3zM971.9 569.7h-2.4c-1-.1-2.5.5-3.1-.6-.8-1.4.3-2.7 1.1-3.8a5.7 5.7 0 019.7.3c1.5 2.6.6 4-2.5 4H972zM899.8 569.7h-2.3c-1.1-.1-2.5.5-3.1-.6-.8-1.4.3-2.7 1.1-3.9a5.5 5.5 0 015.4-2.4 5.2 5.2 0 014.6 3.7c.6 2 .8 3.3-2.3 3.2h-3.4zM668.1 569.7a19 19 0 01-2.4 0c-1-.2-2.4.6-2.9-.9-.3-1 .4-2.1 1-3a5.9 5.9 0 016.1-3c2.7.6 4.3 2.5 4.6 5.4a1 1 0 01-1 1.4h-5.3zM1294.3 569.7c0-3.1 1.1-4.9 3.2-6.1a5.6 5.6 0 018 2.5c1 2.4.3 3.5-2.3 3.6h-9z"/>
  <path class="cls-2" d="M179.7 507.6l-2.7 4.3v.1c-.6.9-1.3 1.6-1.8 2.5a302.8 302.8 0 00-20.9 36.1 139.3 139.3 0 00-15.3 75.2l1.1 11a11.4 11.4 0 01.2 4.2 4.3 4.3 0 01-1-.9 83.8 83.8 0 01-12.6-30.3 48.2 48.2 0 01.8-21.4 119 119 0 0111.4-27.3c10.2-18.3 23-34.6 37-50a6.2 6.2 0 01.7-.6l1-1h.2-.1zM177.7 509.5l-1 1 1-1z"/>
  <path class="cls-1" d="M285.4 172.6l3.5-8.5-3.1 11.6"/>
</svg>
