<svg xmlns="http://www.w3.org/2000/svg" width="100" height="100" version="1.1" id="svg365">
  <defs id="defs334">
    <style id="style332">
      .cls-1{fill:#070707}.cls-2{fill:#0cf}
    </style>
  </defs>
  <g id="g341" transform="translate(1 1)">
    <path fill="#fafafa" id="canvas_background" d="M-1-1H99V99H-1z"/>
  </g>
  <g id="g363" transform="translate(11.381576 -29.563128) scale(.20344)">
    <path id="svg_11" d="M199 367.36c-1 .66-1.86.18-2.71-.18a50.28 50.28 0 01-14.56-9.13 63.51 63.51 0 01-12.41-15.78 46.57 46.57 0 01-5.38-16.79c-2.18-15.94.41-30.93 9-44.64a81.41 81.41 0 0121.57-22.93 135.64 135.64 0 0153.65-23.42c3.29-.63 6.61-1 9.92-1.53-14 4.66-21.09 7.91-31.21 14.27a102.06 102.06 0 00-31 30.25 74.32 74.32 0 00-12.2 52.52 77.39 77.39 0 0013 33.73c.8 1.17 1.89 2.19 2.21 3.66z" class="cls-2"/>
    <path id="svg_12" d="M218.87 357.24C198.28 412 177.75 466.32 157.15 521c-1.39-1.8-1.23-3.57-1.27-5.21-.15-6.72-.33-13.43-.25-20.15a179.35 179.35 0 014.83-38.94 114.34 114.34 0 0113.07-32.81c3.78-6.32 7.77-12.5 12-18.48 10.21-14.33 19.91-29 29.62-43.65.99-1.48 1.72-3.12 3.72-4.52z" class="cls-1"/>
    <path id="svg_13" d="M186.14 515.74c-.37-1.54.48-2.39 1-3.33 5.16-9.55 12.24-17.53 20.3-24.7C215 481 223.36 475.4 232 470.13c12.27-7.52 25-14.31 37.6-21.18 7.31-4 14.68-7.82 21.69-12.28 3.1-2 6.08-4.14 9.13-6.2 1.13-.77 1.79-.57 2.11.65a42.31 42.31 0 011.36 13.3 30.85 30.85 0 01-1.23 7.55 23.17 23.17 0 01-8.71 12.29 61.33 61.33 0 01-15.83 7.88c-8.47 2.94-17.25 4.71-26 6.62-7.8 1.7-15.59 3.45-23.26 5.73a73.51 73.51 0 00-31.73 19.05c-2.7 2.71-5.22 5.61-7.79 8.46-1.09 1.16-2.06 2.39-3.2 3.74z" class="cls-2"/>
    <path id="svg_14" d="M156.86 309.17a14.83 14.83 0 01-.27 1.89c-4.88 17.46-11.3 34.28-20.89 49.76a100.41 100.41 0 01-13 16.58 27.1 27.1 0 01-18.76 8.39 104.22 104.22 0 01-25.31-1.61c-3.9-.71-7.88-1.11-11.69-2.68 1.6-1.43 3.55-1.75 5.3-2.44a298.35 298.35 0 0034.7-16.25 106.78 106.78 0 0036-32.46 202 202 0 0011.53-18.23l1.8-3.24z" class="cls-1"/>
    <path id="svg_15" d="M264.59 296.75c.66-.46 1.23-.1 1.79.2A58.55 58.55 0 01289 317.89c4 6.46 5 13.75 4.58 21.24-.48 9.24-4.31 16.87-10.92 23.29a51.66 51.66 0 01-30 14.67 119.11 119.11 0 01-20.59.69 35 35 0 01-11.14-2.16 4.33 4.33 0 012.76-1.1 105.2 105.2 0 0037.82-15.71 55 55 0 004.94-3.81c7.66-6.43 11.36-14.86 12.2-24.67 1.06-12.32-3.45-22.51-12-31.15-.76-.75-1.88-1.18-2.06-2.43z" class="cls-2"/>
    <path id="svg_16" d="M286.9 171.48q-6.07 22.91-12.16 45.83c-5.82 21.75-11 43.67-17.3 65.3q-2.67 9.21-5.74 18.28c-5.08 14.92-13.41 27.88-24 39.43a9.71 9.71 0 00-1 1.67c-1.43-1.36-.59-2.15-.31-2.94q22.47-63.45 45-126.89 7-19.64 14-39.26a17.56 17.56 0 01.8-1.7c-.04.8.22.85.71.28z" class="cls-1"/>
    <path id="svg_17" d="M140.3 641l-.07.07z" class="cls-2"/>
    <path id="svg_18" d="M177.74 509.51l-.07.06v-.13z" class="cls-2"/>
    <path id="svg_19" d="M198 214.33a33.23 33.23 0 01-3 14.67 20.13 20.13 0 01-4.32 6.28c-5 4.82-11.2 4.77-16.15-.15a22.3 22.3 0 01-5.33-9 36.57 36.57 0 010-23.52 23.69 23.69 0 014-7.56c5.51-6.83 13.12-6.91 18.73-.22a23 23 0 014 7.07 32.63 32.63 0 012.07 12.43z" class="cls-1"/>
    <path id="svg_24" d="M301.45 150.23c1 1 1.42 2.6 2 4.07 3.86 10.53 7 21.24 8.22 32.45a52.13 52.13 0 01-.29 14.33 26.13 26.13 0 01-7.23 14.32c-5.86 6-13.1 9.59-21 11.92a4.33 4.33 0 01-1.38-.08c-.17-1.29.88-1.64 1.57-2.21a73.82 73.82 0 009.58-9.38 46.79 46.79 0 0010.77-26.18c1.1-11.23.24-22.36-1.37-33.47-.32-1.9-.6-3.8-.87-5.77z" class="cls-2"/>
    <path id="svg_26" d="M212.94 342.23c-.95 0-1.35-.69-1.78-1.34a57.2 57.2 0 01-8-16.27c-3.35-12-1.6-23.12 6.51-32.89 5.26-6.32 12-8.77 20.11-7.37 2.59.45 5.23.79 7.62 2.08-.45 1.09-1.36 1-2.08 1.14-13.23 2.77-20.61 11.38-23.94 24-1.67 6.3-1.47 12.68-.49 19 .52 3.3 1.41 6.55 2.14 9.82a2.19 2.19 0 01-.09 1.83z" class="cls-2"/>
    <path id="svg_39" d="M276.29 388a1.12 1.12 0 011.33 0 112.51 112.51 0 0120.24 14.34 55.14 55.14 0 014.88 5.25 13.22 13.22 0 012.75 12.53 16.55 16.55 0 01-3.12 6.77c-1.09 0-1.47-.73-1.9-1.38q-11.82-18-23.63-35.95c-.3-.45-.84-.92-.55-1.56z" class="cls-2"/>
    <path id="svg_77" d="M177.75 509.51l1.94-1.93c-.76.53-.91 1.73-2 1.86z" class="cls-2"/>
    <path id="svg_79" d="M140.27 641.06a3.85 3.85 0 01.62.36c.05 0 0 .23 0 .35-.17-.26-.34-.52-.5-.78z" class="cls-2"/>
    <path id="svg_80" class="cls-2" d="M179.69 507.58l.12-.13-.1.13z"/>
    <path id="svg_104" d="M179.71 507.58l-2.71 4.34-.07.12c-.52.84-1.22 1.6-1.76 2.42a302.82 302.82 0 00-20.87 36.14c-5.43 11.26-10.05 22.82-12.52 35.14-2.65 13.23-4 26.56-2.78 40.07.34 3.66.79 7.31 1.15 11a11.36 11.36 0 01.15 4.19 4.34 4.34 0 01-1-.86c-6-9.36-10.62-19.3-12.62-30.34a48.17 48.17 0 01.81-21.36 119 119 0 0111.44-27.35c10.2-18.25 22.93-34.63 37.05-50a6.15 6.15 0 01.64-.61l1.06-.89.07-.06-.05-.05z" class="cls-2"/>
    <path id="svg_105" d="M177.74 509.51l-.07.06-1.06.89 1.06-1z" class="cls-2"/>
    <path id="svg_106" class="cls-1" d="M285.44 172.59l3.46-8.5-3.11 11.58"/>
  </g>
</svg>
